<svg width="193" height="104" viewBox="0 0 193 104" fill="none" xmlns="http://www.w3.org/2000/svg">
<path d="M147.069 20.4046V40.8088H126.665C125.99 40.8088 125.355 40.7691 124.72 40.7294C116.542 39.9355 109.754 34.3382 107.293 26.7561C106.618 24.7713 106.301 22.6277 106.301 20.4046C106.301 20.3252 106.301 20.2459 106.301 20.1665C106.38 14.6089 108.643 9.6071 112.255 5.99469C115.947 2.30288 121.028 0.0401611 126.665 0.0401611C132.302 0.0401611 137.383 2.34258 141.075 5.99469C144.807 9.6468 147.069 14.7677 147.069 20.4046Z" fill="#8A5DFE"/>
<path d="M138.535 18.1817C138.257 18.4596 137.939 18.6978 137.661 18.936C136.232 20.2459 134.843 21.5559 133.811 23.2629C132.62 25.2477 131.707 27.3914 130.794 29.535C130.754 29.6541 130.714 29.7335 130.675 29.8526C130.555 30.1305 130.555 30.3686 130.635 30.6465C130.794 31.3611 130.952 32.1153 131.032 32.8298C131.191 34.2589 131.27 35.688 131.31 37.1568C131.31 37.395 131.31 37.6332 131.31 37.8713C131.31 38.8241 131.27 39.8165 131.191 40.7692H126.745C126.07 40.7692 125.435 40.7295 124.799 40.6898C124.799 40.6501 124.799 40.5707 124.799 40.531C124.958 38.1889 124.879 35.8865 124.641 33.5841C124.601 33.0283 124.522 32.4726 124.442 31.9565C124.363 31.3214 124.283 30.6465 123.767 30.1305C122.537 28.7808 121.743 27.1929 121.108 25.4859C120.949 25.0096 120.75 24.5729 120.512 24.1362C120.234 23.5805 119.877 23.0247 119.401 22.5484C118.448 21.5559 117.535 20.5238 116.582 19.4917C116.146 19.0153 115.749 18.539 115.431 17.9832C115.193 17.5466 115.153 17.0702 115.471 16.6732C115.788 16.2763 116.225 16.2763 116.701 16.3954C117.336 16.5541 117.852 16.9114 118.329 17.3481C119.361 18.2214 120.195 19.3329 121.187 20.2459C121.505 20.5635 121.703 20.9208 121.822 21.3972C122.06 22.2705 122.338 23.1438 122.934 23.8584C123.489 24.4935 124.164 24.7317 124.839 24.3744C125.315 24.0965 125.633 24.1759 126.03 24.4538C126.784 24.9699 127.539 24.9302 128.253 24.3744C128.531 24.1759 128.729 24.0965 129.087 24.2156C129.603 24.3744 130.159 24.4141 130.675 24.0568C131.111 23.7393 131.31 23.3026 131.429 22.8262C131.588 22.1514 131.588 21.4369 131.627 20.762C131.667 20.4444 131.667 20.1666 131.905 19.9284C133.017 18.7772 134.088 17.5863 135.518 16.7526C136.232 16.3557 136.986 16.1175 137.82 16.1969C138.336 16.2366 138.733 16.435 138.892 16.9511C139.051 17.4275 138.892 17.8244 138.535 18.1817Z" fill="white"/>
<path d="M128.412 22.6673C128.61 23.4215 129.126 23.8582 129.722 23.8582C130.238 23.8582 130.873 23.2628 130.992 22.6276C131.072 22.1909 131.111 21.7543 131.111 21.3176C131.191 20.1664 131.27 19.0152 131.27 17.864C131.27 17.4273 131.151 16.9907 130.913 16.6334C130.555 16.0776 130.039 15.7997 129.365 15.8791C128.848 15.9188 128.332 16.5143 128.213 17.1494C128.174 17.4273 128.134 17.7449 128.174 18.0625C128.213 19.3725 128.253 20.6428 128.293 21.9528C128.293 22.1512 128.332 22.3894 128.412 22.6673Z" fill="white"/>
<path d="M125.514 22.7465C125.554 22.945 125.593 23.1037 125.673 23.3022C125.951 24.1359 126.903 24.5328 127.697 24.2153C128.253 23.9771 128.372 23.7389 128.134 23.1434C127.896 22.5877 127.896 22.0319 127.856 21.4365C127.816 20.5631 127.816 19.6898 127.777 18.8165C127.777 18.6974 127.777 18.5386 127.777 18.4195C127.618 16.9507 126.744 16.8713 125.752 17.2286C125.276 17.3874 125.037 17.7447 125.037 18.221C125.077 19.7692 125.157 21.2777 125.514 22.7465Z" fill="white"/>
<path d="M122.021 21.2381C122.259 21.8336 122.497 22.5481 122.894 23.223C123.132 23.5802 123.41 23.9375 123.886 24.0566C124.76 24.2948 125.315 23.8184 125.157 22.9054C125.077 22.3496 124.958 21.8336 124.879 21.2778C124.799 20.6427 124.72 20.0075 124.68 19.4121C124.641 18.6975 124.164 18.38 123.489 18.5784C122.299 18.8563 121.663 19.9678 122.021 21.2381Z" fill="white"/>
<path d="M129.603 13.4976C129.642 13.7357 129.722 13.9342 129.96 13.9739C130.198 14.0136 130.317 13.8548 130.436 13.696C130.555 13.5373 130.674 13.3785 130.754 13.2197C131.349 11.9494 131.627 10.5997 131.707 9.2103C131.707 9.09121 131.707 8.93243 131.707 8.81334C131.627 8.33697 131.27 8.21788 130.913 8.53546C130.794 8.61485 130.714 8.73394 130.674 8.85303C129.881 10.2424 129.523 11.7112 129.603 13.2991C129.563 13.3785 129.563 13.4579 129.603 13.4976Z" fill="#FFB600"/>
<path d="M119.678 11.4331C120.036 12.624 120.671 13.6561 121.505 14.5295C121.584 14.6089 121.663 14.6882 121.743 14.7676C121.981 14.9661 122.219 15.2837 122.537 15.0852C122.894 14.8867 122.775 14.4898 122.656 14.1722C122.179 12.7431 121.425 11.4728 120.393 10.3613C120.353 10.2819 120.274 10.2422 120.194 10.2025C119.996 10.0834 119.798 9.92462 119.599 10.0834C119.44 10.2025 119.401 10.401 119.44 10.5995C119.52 10.917 119.599 11.1949 119.678 11.4331Z" fill="#FFB600"/>
<path d="M126.308 10.4806C126.228 10.1234 126.149 9.76609 126.03 9.44852C125.911 9.13094 125.673 8.97216 125.315 9.01185C124.958 9.05155 124.76 9.28973 124.72 9.60731C124.64 10.8776 124.879 12.1082 125.673 13.1403C125.99 13.5373 126.387 13.4579 126.506 12.9418C126.665 12.4258 126.586 11.9097 126.506 11.3937C126.506 11.0761 126.387 10.7585 126.308 10.4806Z" fill="#FFB600"/>
<path d="M192.8 66.1352C192.8 71.7722 190.498 76.8534 186.846 80.5452C185.853 81.5376 184.781 82.4109 183.59 83.2049C181.725 84.4355 179.621 85.3882 177.398 85.9439C175.81 86.3409 174.143 86.5394 172.436 86.5394C161.162 86.5394 152.031 77.4091 152.031 66.1352V45.731H172.436C183.67 45.731 192.8 54.8613 192.8 66.1352Z" fill="#FFB600"/>
<path d="M164.06 67.0879C165.012 67.207 165.846 67.5642 166.719 67.9612C166.918 68.0406 167.037 68.12 167.196 67.8818C167.553 67.3261 168.069 66.9688 168.704 66.6115C167.87 65.7779 166.997 65.0633 166.005 64.5473C165.409 64.2297 164.853 64.19 164.298 64.6267C163.702 65.103 163.385 65.7382 163.543 66.5321C163.583 66.81 163.742 67.0482 164.06 67.0879Z" fill="white"/>
<path d="M177.318 74.8687C177.08 74.5114 176.961 74.1541 177.08 73.6778C177.318 72.7647 177.477 71.812 177.556 70.8593C177.676 69.5096 177.755 68.1202 177.437 66.8102C177.08 65.3414 176.445 63.952 175.016 63.1978C174.262 62.8008 173.865 62.2451 173.587 61.4511C172.634 58.8311 171.84 56.1318 171.007 53.4721C170.887 53.0751 170.808 52.7178 170.61 52.3606C170.213 51.646 169.538 51.3284 168.823 51.4872C168.267 51.6063 167.91 52.1224 167.831 52.9957C167.791 53.869 167.87 54.7027 168.109 55.5363C168.545 57.283 169.022 59.0296 169.498 60.816C169.538 61.0145 169.617 61.1733 169.617 61.3717C169.657 61.8481 169.538 62.1657 169.18 62.2848C168.783 62.4039 168.426 62.2848 168.188 61.9275C168.029 61.6893 167.87 61.4114 167.751 61.1733C166.918 59.4663 166.084 57.7196 165.25 55.973C164.973 55.4172 164.655 54.9012 164.139 54.5042C163.663 54.1469 163.147 53.9484 162.591 54.266C162.035 54.5439 161.916 55.0203 161.916 55.6157C161.956 56.4493 162.234 57.2433 162.591 57.9578C163.544 59.8236 164.536 61.6893 165.528 63.5551C165.647 63.7536 165.727 63.9917 165.965 64.1108C167.037 64.5872 167.91 65.3414 168.744 66.1354C169.022 66.4132 169.3 66.4529 169.657 66.3339C170.768 66.0163 171.88 65.7384 172.991 65.5002C173.626 65.3811 174.262 65.1429 174.937 65.3017C174.897 65.5002 174.817 65.5399 174.659 65.5796C174.301 65.6193 173.904 65.6987 173.547 65.7781C172.118 66.056 170.689 66.3339 169.3 66.9293C168.744 67.1675 168.188 67.4454 167.791 67.9614C167.116 68.7554 167.473 69.7875 168.506 69.9463C168.783 69.986 169.022 69.986 169.3 69.986C170.53 70.0257 171.642 69.6287 172.793 69.2714C172.952 69.2317 173.19 69.0729 173.269 69.3111C173.388 69.5493 173.15 69.6287 172.991 69.7478C172.952 69.7875 172.912 69.7875 172.833 69.8272C171.403 70.2638 169.974 70.6211 168.426 70.3432C167.632 70.2241 167.077 69.8272 166.838 69.0729C166.759 68.8744 166.68 68.676 166.481 68.5966C165.846 68.279 165.171 68.0011 164.457 67.8026C163.742 67.6438 163.385 68.7554 163.186 69.2714C163.027 69.7081 163.147 70.2241 163.305 70.6608C163.583 71.296 164.02 71.8517 164.496 72.3281C166.044 73.9159 167.87 75.1069 169.855 76.0596C170.332 76.2978 170.61 76.5756 170.887 77.0123C172.793 80.188 174.897 83.2447 177.239 86.1029C179.462 85.5471 181.566 84.5944 183.432 83.3638C181.328 80.585 179.263 77.7665 177.318 74.8687ZM169.339 72.209C168.109 72.1296 166.838 71.9708 165.647 71.6135C165.608 71.6135 165.568 71.5341 165.409 71.3754C166.124 71.415 166.759 71.4547 167.354 71.5341C167.91 71.6135 168.466 71.6135 169.022 71.6532C169.736 71.7326 170.213 71.4547 170.53 70.8593C170.61 70.7402 170.649 70.6211 170.808 70.5814C170.848 71.4547 170.173 72.2487 169.339 72.209Z" fill="white"/>
<path d="M192.8 20.4044C192.8 26.0413 190.498 31.1225 186.806 34.8143C183.114 38.5061 178.033 40.8086 172.396 40.8086H151.992V20.4044C151.992 9.13049 161.122 0.000213623 172.396 0.000213623C178.033 0.000213623 183.114 2.26293 186.806 5.95474C190.537 9.64655 192.8 14.7674 192.8 20.4044Z" fill="#00E19B"/>
<path d="M179.938 19.4523C179.025 21.8341 178.073 24.2556 176.842 26.4786C176.008 27.9871 174.976 29.2574 173.507 30.1307C173.269 30.2895 173.11 30.488 173.031 30.7262C171.602 34.3783 169.26 37.3556 166.441 40.0152C166.163 40.2534 165.925 40.5313 165.647 40.7695H155.564C157.907 39.4198 161.598 36.1249 163.385 34.021C164.536 32.6713 165.568 31.2025 166.481 29.6544C166.719 29.2177 166.799 28.8604 166.56 28.3841C165.131 25.4465 164.814 22.2707 164.933 19.0553C164.973 18.4599 165.052 17.8644 165.25 17.3086C165.409 16.9514 165.608 16.6338 165.965 16.475C166.402 16.2765 166.719 16.3956 166.838 16.872C166.957 17.2689 166.918 17.6659 166.918 18.0629C166.918 18.8965 166.918 19.7302 167.076 20.5638C167.116 20.8417 167.116 21.1592 167.394 21.3577C167.672 21.2783 167.672 21.0401 167.712 20.8417C168.188 18.8568 168.664 16.9117 169.141 14.9268C169.26 14.4108 169.379 13.9344 169.538 13.4184C169.657 13.0214 169.816 12.6641 170.093 12.3465C170.371 12.029 170.729 11.8702 171.205 11.9893C171.602 12.1084 171.8 12.4259 171.88 12.8229C171.999 13.3787 171.88 13.8947 171.8 14.4108C171.523 15.7605 171.245 17.1102 171.006 18.4599C170.967 18.698 170.927 18.9362 170.927 19.1744C170.927 19.2935 171.006 19.4523 171.165 19.492C171.324 19.5317 171.403 19.4126 171.523 19.3332C171.681 19.1744 171.681 18.9362 171.721 18.7377C172.158 16.9911 172.555 15.2047 172.991 13.4581C173.071 13.0611 173.229 12.6641 173.428 12.3465C173.587 12.0687 173.785 11.8702 174.063 11.7511C174.659 11.4732 175.254 11.7511 175.413 12.4259C175.572 13.1008 175.453 13.7359 175.294 14.3314C174.857 16.0383 174.42 17.7453 173.984 19.4126C173.944 19.6111 173.904 19.8492 173.865 20.0477C173.865 20.1668 173.904 20.2462 174.023 20.3256C174.143 20.3653 174.262 20.3256 174.301 20.2462C174.46 19.9683 174.579 19.7302 174.698 19.4523C175.214 18.1026 175.73 16.7132 176.246 15.3635C176.366 15.0459 176.485 14.6887 176.723 14.4108C177.04 14.0138 177.437 13.8947 177.874 14.0138C178.271 14.1329 178.469 14.4505 178.469 14.9665C178.469 15.4032 178.35 15.8399 178.231 16.2368C177.834 17.4277 177.398 18.6583 177.001 19.8492C176.961 20.008 176.882 20.1668 176.842 20.3256C176.802 20.5638 176.643 20.8417 176.961 20.9608C177.239 21.0798 177.398 20.8417 177.556 20.6432C177.795 20.3256 177.914 19.9286 178.112 19.5714C178.311 19.1347 178.469 18.6583 178.747 18.2614C178.906 18.0232 179.105 17.8247 179.343 17.7453C179.819 17.5468 180.296 17.8247 180.335 18.3408C180.176 18.7377 180.097 19.095 179.938 19.4523Z" fill="white"/>
<path d="M6.10352e-05 46.5163H8.21731C13.8146 46.5163 16.5536 49.6127 16.5536 55.2893V58.7827C16.5536 64.4593 13.8146 67.5557 8.21731 67.5557H5.55762V82.045H6.10352e-05V46.5163ZM8.21731 62.5539C10.0037 62.5539 10.9564 61.7599 10.9564 59.2193V55.0115C10.9564 52.4709 10.0037 51.6769 8.21731 51.6769H5.55762V62.5936H8.21731V62.5539Z" fill="black"/>
<path d="M20.6424 46.5163H35.886V51.5975H26.2V61.0057H33.8615V66.0869H26.2V77.0035H35.8463V82.0847H20.6424V46.5163Z" fill="black"/>
<path d="M39.6969 73.6692V54.972C39.6969 49.2953 42.7139 46.0402 48.1921 46.0402C53.6702 46.0402 56.6872 49.2953 56.6872 54.972V73.6692C56.6872 79.3458 53.6702 82.601 48.1921 82.601C42.6742 82.601 39.6969 79.3458 39.6969 73.6692ZM51.0502 74.0265V54.6147C51.0502 52.0741 49.9387 51.1214 48.1524 51.1214C46.366 51.1214 45.2545 52.0741 45.2545 54.6147V74.0265C45.2545 76.5671 46.366 77.5198 48.1524 77.5198C49.9387 77.5198 51.0502 76.5671 51.0502 74.0265Z" fill="black"/>
<path d="M61.4111 46.5163H69.6284C75.2256 46.5163 77.9647 49.6127 77.9647 55.2893V58.7827C77.9647 64.4593 75.2256 67.5557 69.6284 67.5557H66.9687V82.045H61.3714V46.5163H61.4111ZM69.6681 62.5539C71.4544 62.5539 72.4072 61.7599 72.4072 59.2193V55.0115C72.4072 52.4709 71.4544 51.6769 69.6681 51.6769H67.0084V62.5936H69.6681V62.5539Z" fill="black"/>
<path d="M82.0535 46.5163H87.6507V77.0035H96.8604V82.0847H82.0932V46.5163H82.0535Z" fill="black"/>
<path d="M100.552 46.5163H115.796V51.5975H106.149V61.0057H113.811V66.0869H106.149V77.0035H115.796V82.0847H100.552V46.5163Z" fill="black"/>
<path d="M119.845 46.5163H125.522L124.132 57.9887H121.115L119.845 46.5163Z" fill="black"/>
<path d="M129.61 73.6689V71.6444H134.89V74.0659C134.89 76.6065 136.001 77.5195 137.788 77.5195C139.574 77.5195 140.686 76.6065 140.686 73.9468C140.686 71.0092 139.574 69.1038 135.922 65.928C131.238 61.7996 129.729 58.9017 129.729 54.8526C129.729 49.2554 132.627 46.0002 138.066 46.0002C143.504 46.0002 146.204 49.2554 146.204 54.932V56.4008H140.924V54.5747C140.924 52.0341 139.892 51.0814 138.145 51.0814C136.398 51.0814 135.366 52.0341 135.366 54.4953C135.366 57.0756 136.518 58.9811 140.209 62.1568C144.894 66.2853 146.362 69.1038 146.362 73.5498C146.362 79.3456 143.425 82.6007 137.947 82.6007C132.349 82.6007 129.61 79.3456 129.61 73.6689Z" fill="black"/>
<path d="M55.7344 87.5631V103.521H54.2259V87.5631H55.7344Z" fill="black"/>
<path d="M61.5301 97.7256V103.521H60.0613V97.6065C60.0613 94.2719 62.0859 91.6917 65.5792 91.6917C69.1519 91.6917 71.2162 94.2322 71.2162 97.6065V103.561H69.7474V97.7653C69.7474 95.2644 68.2786 93.1207 65.5792 93.1207C62.9592 93.081 61.5301 95.2644 61.5301 97.7256Z" fill="black"/>
<path d="M74.1934 101.219L75.424 100.544C76.0988 101.893 77.2103 102.37 78.5997 102.37C80.1479 102.37 81.4579 101.695 81.4579 100.345C81.4579 97.4474 74.5903 99.4719 74.5903 95.0656C74.5903 93.1204 76.3767 91.7707 78.56 91.7707C80.4655 91.7707 81.8945 92.5647 82.6488 93.9541L81.4182 94.6289C80.783 93.4777 79.7906 93.1204 78.56 93.1204C77.2897 93.1204 76.0194 93.7953 76.0194 95.0259C76.0194 97.8444 82.887 95.8992 82.887 100.306C82.887 102.409 80.9021 103.719 78.5997 103.719C76.6943 103.719 75.0667 102.886 74.1934 101.219Z" fill="black"/>
<path d="M86.7377 99.7102V93.2793H84.2765V91.9296H86.7377V88.873H88.2065V91.9693H92.9304V93.319H88.2065V99.7102C88.2065 101.417 89.1989 102.449 90.7471 102.449C91.5807 102.449 92.3746 102.132 92.9304 101.655V103.084C92.3349 103.521 91.4616 103.839 90.628 103.839C88.1668 103.799 86.7377 102.171 86.7377 99.7102Z" fill="black"/>
<path d="M96.384 88.0395C96.384 87.4043 96.8603 86.928 97.4558 86.928C98.0513 86.928 98.4879 87.4043 98.4879 88.0395C98.4879 88.6746 98.0513 89.151 97.4558 89.151C96.8603 89.151 96.384 88.6746 96.384 88.0395ZM98.21 91.9298V103.521H96.7413V91.9298H98.21Z" fill="black"/>
<path d="M103.053 99.7102V93.2793H100.592V91.9296H103.053V88.873H104.522V91.9693H109.246V93.319H104.522V99.7102C104.522 101.417 105.514 102.449 107.062 102.449C107.896 102.449 108.69 102.132 109.246 101.655V103.084C108.65 103.521 107.777 103.839 106.943 103.839C104.482 103.799 103.053 102.171 103.053 99.7102Z" fill="black"/>
<path d="M121.949 97.6858V91.9297H123.417V97.8446C123.417 101.179 121.353 103.759 117.939 103.759C114.565 103.759 112.541 101.179 112.541 97.8446V91.9297H114.009V97.7255C114.009 100.187 115.399 102.37 117.939 102.37C120.52 102.33 121.949 100.187 121.949 97.6858Z" fill="black"/>
<path d="M127.824 99.7102V93.2793H125.363V91.9296H127.824V88.873H129.293V91.9693H134.016V93.319H129.293V99.7102C129.293 101.417 130.285 102.449 131.833 102.449C132.667 102.449 133.461 102.132 134.016 101.655V103.084C133.421 103.521 132.548 103.839 131.714 103.839C129.253 103.799 127.824 102.171 127.824 99.7102Z" fill="black"/>
<path d="M136.16 97.6856C136.16 94.3511 138.463 91.6517 141.876 91.6517C145.251 91.6517 147.434 94.0732 147.434 97.368V98.2414H137.629C137.867 100.623 139.693 102.33 142.154 102.33C143.742 102.33 145.171 101.735 146.005 100.266L147.156 100.901C146.124 102.806 144.298 103.759 142.154 103.759C138.701 103.759 136.16 101.139 136.16 97.6856ZM145.926 97.0505C145.886 94.629 144.179 93.0808 141.837 93.0808C139.415 93.0808 137.867 94.8274 137.629 97.0505H145.926Z" fill="black"/>
</svg>
